<svg width="880" height="230" viewBox="0 0 880 230" fill="none" xmlns="http://www.w3.org/2000/svg">
<g opacity="0.85">
<circle opacity="0.05" cx="788.5" cy="-20.4999" r="117.5" stroke="url(#paint0_linear_129_4981)" stroke-width="90"/>
<path opacity="0.3" d="M286 308.684C286 305.829 286.93 301.905 290.156 298C290.579 297.488 291.059 296.961 291.596 296.432C289.941 300.066 289 304.242 289 308.684C289 313.127 289.941 317.303 291.596 320.936C291.059 320.407 290.579 319.88 290.156 319.369C286.93 315.463 286 311.539 286 308.684ZM328.404 296.432C330.059 300.066 331 304.242 331 308.684C331 313.126 330.059 317.303 328.404 320.936C328.941 320.407 329.421 319.88 329.844 319.369C333.07 315.463 334 311.539 334 308.684C334 305.829 333.07 301.905 329.844 298C329.421 297.488 328.941 296.961 328.404 296.432ZM310 379.105C354.113 379.105 376 339.15 376 308.684C376 278.219 354.113 238.263 310 238.263C265.887 238.263 244 278.219 244 308.684C244 339.15 265.887 379.105 310 379.105Z" stroke="url(#paint1_linear_129_4981)" stroke-width="90"/>
<path opacity="0.3" d="M87 -61.7368C87 -64.5917 87.9299 -68.5159 91.156 -72.4211C91.5789 -72.9331 92.0592 -73.4598 92.5956 -73.9889C90.9413 -70.3552 90 -66.1791 90 -61.7368C90 -57.2946 90.9413 -53.1184 92.5956 -49.4848C92.0592 -50.0139 91.5789 -50.5406 91.156 -51.0526C87.9299 -54.9578 87 -58.882 87 -61.7368ZM129.404 -73.9889C131.059 -70.3552 132 -66.1791 132 -61.7368C132 -57.2946 131.059 -53.1185 129.404 -49.4848C129.941 -50.0139 130.421 -50.5406 130.844 -51.0526C134.07 -54.9578 135 -58.882 135 -61.7368C135 -64.5917 134.07 -68.5159 130.844 -72.4211C130.421 -72.9331 129.941 -73.4598 129.404 -73.9889ZM111 8.6842C155.113 8.6842 177 -31.2714 177 -61.7368C177 -92.2023 155.113 -132.158 111 -132.158C66.8866 -132.158 45 -92.2023 45 -61.7368C45 -31.2714 66.8866 8.6842 111 8.6842Z" stroke="url(#paint2_linear_129_4981)" stroke-width="90"/>
</g>
<defs>
<linearGradient id="paint0_linear_129_4981" x1="788.5" y1="-92.9999" x2="788.5" y2="52.0001" gradientUnits="userSpaceOnUse">
<stop stop-color="#2E6FD7"/>
<stop offset="1" stop-color="#2E6FD7"/>
</linearGradient>
<linearGradient id="paint1_linear_129_4981" x1="310" y1="283.263" x2="310" y2="334.105" gradientUnits="userSpaceOnUse">
<stop stop-color="#2F6CCD" stop-opacity="0.06"/>
<stop offset="1" stop-color="#2F6CCD"/>
</linearGradient>
<linearGradient id="paint2_linear_129_4981" x1="111" y1="-87.1579" x2="111" y2="-36.3158" gradientUnits="userSpaceOnUse">
<stop stop-color="#FD6B63"/>
<stop offset="1" stop-color="#FD6B63" stop-opacity="0.08"/>
</linearGradient>
</defs>
</svg>
