<svg width="35" height="35" viewBox="0 0 35 35" fill="none" xmlns="http://www.w3.org/2000/svg">
<path opacity="0.4" d="M31.7334 23.2167L22.4 6.41669C21.1459 4.15627 19.4104 2.91669 17.5 2.91669C15.5896 2.91669 13.8542 4.15627 12.6 6.41669L3.2667 23.2167C2.08545 25.3604 1.9542 27.4167 2.90211 29.0354C3.85003 30.6542 5.7167 31.5438 8.1667 31.5438H26.8334C29.2834 31.5438 31.15 30.6542 32.0979 29.0354C33.0459 27.4167 32.9146 25.3459 31.7334 23.2167Z" fill="#E7FD63"/>
<path d="M17.5 21.5104C16.9021 21.5104 16.4062 21.0146 16.4062 20.4167V13.125C16.4062 12.5271 16.9021 12.0312 17.5 12.0312C18.0979 12.0312 18.5938 12.5271 18.5938 13.125V20.4167C18.5938 21.0146 18.0979 21.5104 17.5 21.5104Z" fill="#E7FD63"/>
<path d="M17.5001 26.25C17.4126 26.25 17.3105 26.2354 17.2084 26.2209C17.1209 26.2063 17.0334 26.1771 16.9459 26.1334C16.8584 26.1042 16.7709 26.0604 16.6834 26.0021C16.6105 25.9438 16.5376 25.8854 16.4647 25.8271C16.2022 25.55 16.0417 25.1709 16.0417 24.7917C16.0417 24.4125 16.2022 24.0334 16.4647 23.7563C16.5376 23.6979 16.6105 23.6396 16.6834 23.5813C16.7709 23.5229 16.8584 23.4792 16.9459 23.45C17.0334 23.4063 17.1209 23.3771 17.2084 23.3625C17.398 23.3188 17.6022 23.3188 17.7772 23.3625C17.8792 23.3771 17.9667 23.4063 18.0542 23.45C18.1417 23.4792 18.2292 23.5229 18.3167 23.5813C18.3897 23.6396 18.4626 23.6979 18.5355 23.7563C18.798 24.0334 18.9584 24.4125 18.9584 24.7917C18.9584 25.1709 18.798 25.55 18.5355 25.8271C18.4626 25.8854 18.3897 25.9438 18.3167 26.0021C18.2292 26.0604 18.1417 26.1042 18.0542 26.1334C17.9667 26.1771 17.8792 26.2063 17.7772 26.2209C17.6897 26.2354 17.5876 26.25 17.5001 26.25Z" fill="#E7FD63"/>
</svg>
