<svg width="35" height="35" viewBox="0 0 35 35" fill="none" xmlns="http://www.w3.org/2000/svg">
<path opacity="0.4" d="M23.6105 2.91669H11.3897C6.08133 2.91669 2.91675 6.08127 2.91675 11.3896V23.5959C2.91675 28.9188 6.08133 32.0834 11.3897 32.0834H23.5959C28.9042 32.0834 32.0688 28.9188 32.0688 23.6104V11.3896C32.0834 6.08127 28.9188 2.91669 23.6105 2.91669Z" fill="#00FFD1"/>
<path d="M22.6042 14.7729C24.1184 14.7729 25.3459 13.5454 25.3459 12.0312C25.3459 10.517 24.1184 9.28955 22.6042 9.28955C21.09 9.28955 19.8625 10.517 19.8625 12.0312C19.8625 13.5454 21.09 14.7729 22.6042 14.7729Z" fill="#00FFD1"/>
<path d="M12.3957 14.7729C13.9099 14.7729 15.1374 13.5454 15.1374 12.0312C15.1374 10.517 13.9099 9.28955 12.3957 9.28955C10.8815 9.28955 9.65405 10.517 9.65405 12.0312C9.65405 13.5454 10.8815 14.7729 12.3957 14.7729Z" fill="#00FFD1"/>
<path d="M22.75 18.8417H12.25C11.2292 18.8417 10.3979 19.6729 10.3979 20.7083C10.3979 24.6313 13.5917 27.825 17.5146 27.825C21.4375 27.825 24.6313 24.6313 24.6313 20.7083C24.6167 19.6875 23.7709 18.8417 22.75 18.8417Z" fill="#00FFD1"/>
</svg>
