<svg width="56" height="55" viewBox="0 0 56 55" fill="none" xmlns="http://www.w3.org/2000/svg">
<path opacity="0.4" d="M50.5833 37.9167V46.0417C50.5833 50.5375 46.9542 54.1667 42.4583 54.1667H39.75C39.75 51.1875 37.3125 48.75 34.3333 48.75C31.3542 48.75 28.9167 51.1875 28.9167 54.1667H18.0833C18.0833 51.1875 15.6458 48.75 12.6667 48.75C9.68751 48.75 7.25001 51.1875 7.25001 54.1667H4.54167C0.0458387 54.1667 -3.58333 50.5375 -3.58333 46.0417V37.9167H26.2083C29.1875 37.9167 31.625 35.4792 31.625 32.5V13.5417H36.6084C38.5584 13.5417 40.3459 14.5979 41.3209 16.2771L45.952 24.375H42.4583C40.9688 24.375 39.75 25.5937 39.75 27.0833V35.2083C39.75 36.6979 40.9688 37.9167 42.4583 37.9167H50.5833Z" fill="url(#paint0_linear_94_2410)" fill-opacity="0.05"/>
<path d="M12.6667 59.5834C15.6582 59.5834 18.0833 57.1582 18.0833 54.1667C18.0833 51.1751 15.6582 48.75 12.6667 48.75C9.67512 48.75 7.25 51.1751 7.25 54.1667C7.25 57.1582 9.67512 59.5834 12.6667 59.5834Z" fill="url(#paint1_linear_94_2410)" fill-opacity="0.05"/>
<path d="M34.3333 59.5834C37.3249 59.5834 39.75 57.1582 39.75 54.1667C39.75 51.1751 37.3249 48.75 34.3333 48.75C31.3418 48.75 28.9167 51.1751 28.9167 54.1667C28.9167 57.1582 31.3418 59.5834 34.3333 59.5834Z" fill="url(#paint2_linear_94_2410)" fill-opacity="0.05"/>
<path d="M50.5834 33.9355V37.9167H42.4583C40.9688 37.9167 39.75 36.6979 39.75 35.2083V27.0833C39.75 25.5937 40.9688 24.375 42.4583 24.375H45.952L49.8792 31.2541C50.3396 32.0666 50.5834 32.9876 50.5834 33.9355Z" fill="url(#paint3_linear_94_2410)" fill-opacity="0.05"/>
<path d="M28.9167 5.41666H7.24999C1.96874 5.41666 -2.41871 9.20833 -3.36663 14.2187H9.95832C11.0687 14.2187 11.9896 15.1396 11.9896 16.25C11.9896 17.3604 11.0687 18.2812 9.95832 18.2812H-3.58334V22.3437H4.54166C5.65207 22.3437 6.57291 23.2646 6.57291 24.375C6.57291 25.4854 5.65207 26.4062 4.54166 26.4062H-3.58334V30.4687H-0.87501C0.235406 30.4687 1.15624 31.3896 1.15624 32.5C1.15624 33.6104 0.235406 34.5312 -0.87501 34.5312H-3.58334V37.9167H26.2083C29.1875 37.9167 31.625 35.4792 31.625 32.5V8.125C31.625 6.63541 30.4062 5.41666 28.9167 5.41666Z" fill="url(#paint4_linear_94_2410)" fill-opacity="0.05"/>
<defs>
<linearGradient id="paint0_linear_94_2410" x1="23.5" y1="13.5417" x2="23.5" y2="54.1667" gradientUnits="userSpaceOnUse">
<stop stop-color="white"/>
<stop offset="1" stop-color="white" stop-opacity="0"/>
</linearGradient>
<linearGradient id="paint1_linear_94_2410" x1="12.6667" y1="48.75" x2="12.6667" y2="59.5834" gradientUnits="userSpaceOnUse">
<stop stop-color="white"/>
<stop offset="1" stop-color="white" stop-opacity="0"/>
</linearGradient>
<linearGradient id="paint2_linear_94_2410" x1="34.3333" y1="48.75" x2="34.3333" y2="59.5834" gradientUnits="userSpaceOnUse">
<stop stop-color="white"/>
<stop offset="1" stop-color="white" stop-opacity="0"/>
</linearGradient>
<linearGradient id="paint3_linear_94_2410" x1="45.1667" y1="24.375" x2="45.1667" y2="37.9167" gradientUnits="userSpaceOnUse">
<stop stop-color="white"/>
<stop offset="1" stop-color="white" stop-opacity="0"/>
</linearGradient>
<linearGradient id="paint4_linear_94_2410" x1="14.0208" y1="5.41666" x2="14.0208" y2="37.9167" gradientUnits="userSpaceOnUse">
<stop stop-color="white"/>
<stop offset="1" stop-color="white" stop-opacity="0"/>
</linearGradient>
</defs>
</svg>
