<svg width="116" height="90" viewBox="0 0 116 90" fill="none" xmlns="http://www.w3.org/2000/svg">
<path d="M62.4581 90L44.7527 82.4284V0C44.7527 0 83.231 6.44914 88.5271 22.4293C93.8244 38.4107 85.5691 48.762 82.6717 49.0654C74.5865 49.9063 71.5202 44.8599 71.5202 44.8599V19.0646L62.7378 15.4196L62.4581 90ZM67.0594 78.6446V88.3144C67.0594 88.3144 108.743 74.8569 114.877 69.6716C121.012 64.4837 100.518 51.5893 89.504 54.1093C89.504 54.1093 77.8035 54.6763 67.196 59.2959C67.0968 59.337 67.196 67.986 67.196 67.986L94.1015 61.6809L103.583 65.8864L67.0594 78.6446ZM40.2919 77.9439C40.2919 77.9439 34.8553 80.7467 22.7269 80.6053C10.5985 80.4639 -0.137861 77.0991 0.00133873 69.8117C0.140538 62.5217 20.077 54.531 40.1527 51.1663V61.3993L18.8229 67.0063C18.8229 67.0063 15.1715 71.6374 20.0783 71.7724C31.231 72.0836 40.4323 69.1084 40.4323 69.1084L40.2919 77.9439Z" fill="url(#paint0_linear_461_5480)" fill-opacity="0.03"/>
<defs>
<linearGradient id="paint0_linear_461_5480" x1="58" y1="0" x2="58" y2="90" gradientUnits="userSpaceOnUse">
<stop stop-color="white"/>
<stop offset="1" stop-color="white" stop-opacity="0"/>
</linearGradient>
</defs>
</svg>
