<svg width="41" height="33" viewBox="0 0 41 33" fill="none" xmlns="http://www.w3.org/2000/svg">
    <path d="M22.0566 32.25L15.8749 29.6V0.75C15.8749 0.75 29.3092 3.0072 31.1583 8.60025C33.0078 14.1938 30.1255 17.8167 29.1139 17.9229C26.2911 18.2172 25.2205 16.451 25.2205 16.451V7.4226L22.1542 6.14685L22.0566 32.25ZM23.6631 28.2756V31.6601C23.6631 31.6601 38.2165 26.9499 40.3581 25.1351C42.5001 23.3193 35.3446 18.8063 31.4994 19.6883C31.4994 19.6883 27.4143 19.8867 23.7108 21.5036C23.6761 21.518 23.7108 24.5451 23.7108 24.5451L33.1045 22.3383L36.4147 23.8103L23.6631 28.2756ZM14.3175 28.0304C14.3175 28.0304 12.4194 29.0114 8.18487 28.9619C3.95037 28.9124 0.201867 27.7347 0.250467 25.1841C0.299067 22.6326 7.25967 19.8359 14.2689 18.6582V22.2398L6.82182 24.2022C6.82182 24.2022 5.54697 25.8231 7.26012 25.8704C11.154 25.9793 14.3665 24.938 14.3665 24.938L14.3175 28.0304Z" fill="white" />
</svg>
    