<svg width="35" height="35" viewBox="0 0 35 35" fill="none" xmlns="http://www.w3.org/2000/svg">
<path d="M4.375 24.0625C3.77708 24.0625 3.28125 23.5667 3.28125 22.9688V12.0312C3.28125 11.4333 3.77708 10.9375 4.375 10.9375C4.97292 10.9375 5.46875 11.4333 5.46875 12.0312V22.9688C5.46875 23.5667 4.97292 24.0625 4.375 24.0625Z" fill="#E7FD63"/>
<path opacity="0.4" d="M10.9375 27.7084C10.3396 27.7084 9.84375 27.2125 9.84375 26.6146V8.38544C9.84375 7.78752 10.3396 7.29169 10.9375 7.29169C11.5354 7.29169 12.0312 7.78752 12.0312 8.38544V26.6146C12.0312 27.2125 11.5354 27.7084 10.9375 27.7084Z" fill="#E7FD63"/>
<path d="M17.5 31.3541C16.9021 31.3541 16.4062 30.8583 16.4062 30.2604V4.73956C16.4062 4.14165 16.9021 3.64581 17.5 3.64581C18.0979 3.64581 18.5938 4.14165 18.5938 4.73956V30.2604C18.5938 30.8583 18.0979 31.3541 17.5 31.3541Z" fill="#E7FD63"/>
<path opacity="0.4" d="M24.0625 27.7084C23.4646 27.7084 22.9688 27.2125 22.9688 26.6146V8.38544C22.9688 7.78752 23.4646 7.29169 24.0625 7.29169C24.6604 7.29169 25.1562 7.78752 25.1562 8.38544V26.6146C25.1562 27.2125 24.6604 27.7084 24.0625 27.7084Z" fill="#E7FD63"/>
<path d="M30.625 24.0625C30.0271 24.0625 29.5312 23.5667 29.5312 22.9688V12.0312C29.5312 11.4333 30.0271 10.9375 30.625 10.9375C31.2229 10.9375 31.7188 11.4333 31.7188 12.0312V22.9688C31.7188 23.5667 31.2229 24.0625 30.625 24.0625Z" fill="#E7FD63"/>
</svg>
