<svg width="109" height="142" viewBox="0 0 109 142" fill="none" xmlns="http://www.w3.org/2000/svg">
<path d="M54.5 141.704C84.5995 141.704 109 110.029 109 70.9555C109 31.8819 84.5995 0.206543 54.5 0.206543C24.4005 0.206543 0 31.8819 0 70.9555C0 110.029 24.4005 141.704 54.5 141.704Z" fill="url(#paint0_linear_461_5489)" fill-opacity="0.03"/>
<path d="M76.7471 42.9045C74.6182 40.1685 72.0635 38.7867 69.0617 38.7867C66.0813 38.7867 63.5266 40.1685 61.419 42.9322C59.3113 45.6958 58.2469 48.9845 58.2469 52.826C58.2469 56.6951 59.3113 60.0114 61.419 62.7474C63.5266 65.4834 66.0813 66.8652 69.0617 66.8652C72.0422 66.8652 74.6182 65.4834 76.7471 62.7474C78.876 60.0114 79.9404 56.6951 79.9404 52.826C79.9404 48.9569 78.876 45.6682 76.7471 42.9045ZM83.3254 34.4202C79.3869 29.3075 74.6182 26.7373 68.9979 26.7373C63.4627 26.7373 58.7365 29.2798 54.8193 34.3373C50.9022 39.3947 48.901 45.53 48.8158 52.7154L36.2127 76.1234C35.8721 76.0681 35.3611 76.0405 34.6373 76.0405C31.8272 76.0405 29.2725 76.9525 26.9732 78.7212L0.212891 64.8201C0.0851563 66.8376 0 68.8827 0 70.9554C0 77.7263 0.723828 84.2484 2.08633 90.4666L19.9691 99.7524C20.7143 104.202 22.46 107.905 25.2063 110.807C27.9525 113.709 31.1033 115.173 34.6373 115.173C38.5332 115.173 41.8969 113.488 44.7709 110.088C47.6449 106.689 49.2629 102.488 49.6461 97.5139L68.9766 79.191C74.5756 79.191 79.3444 76.6208 83.2828 71.5081C87.2213 66.3954 89.2012 60.2325 89.2012 52.9918C89.2225 45.7234 87.2639 39.5329 83.3254 34.4202ZM42.5143 105.832C40.3428 108.624 37.7242 110.005 34.6799 110.005C32.5936 110.005 30.6563 109.287 28.9106 107.905C27.1436 106.496 25.8023 104.644 24.8869 102.295C26.8242 103.262 28.6551 104.229 30.3795 105.197C32.6148 106.357 34.8502 106.33 37.1068 105.086C39.3422 103.843 40.9389 101.742 41.8756 98.7851C42.7697 95.8833 42.7484 92.9815 41.7904 90.0521C40.8324 87.1503 39.2145 85.1052 36.9365 83.9444L32.3381 81.5401C33.1684 81.2914 33.9348 81.1808 34.6799 81.1808C37.7455 81.1808 40.3641 82.5626 42.5143 85.3539C44.6857 88.1452 45.7715 91.5444 45.7715 95.5793C45.7715 99.6142 44.6645 103.041 42.5143 105.832ZM78.5779 65.4005C75.9168 68.8274 72.7234 70.5132 68.9979 70.5132C65.2723 70.5132 62.0789 68.7998 59.4391 65.4005C56.7992 62.0012 55.4793 57.8558 55.4793 52.9918C55.4793 48.1554 56.7992 44.01 59.4391 40.5555C62.0789 37.1009 65.251 35.3875 68.9979 35.3875C72.766 35.3875 75.9807 37.1009 78.5992 40.5002C81.2178 43.8994 82.5377 48.0725 82.5377 52.9641C82.559 57.8281 81.2391 61.9736 78.5779 65.4005ZM69.0617 38.8144C66.0813 38.8144 63.5266 40.1962 61.419 42.9598C59.3113 45.7234 58.2469 49.0122 58.2469 52.8536C58.2469 56.7227 59.3113 60.039 61.419 62.775C63.5266 65.511 66.0813 66.8928 69.0617 66.8928C72.0422 66.8928 74.6182 65.511 76.7471 62.775C78.876 60.039 79.9404 56.7227 79.9404 52.8536C79.9404 48.9845 78.876 45.6682 76.7471 42.9322C74.6182 40.1962 72.0422 38.8144 69.0617 38.8144ZM76.7471 42.9045C74.6182 40.1685 72.0635 38.7867 69.0617 38.7867C66.0813 38.7867 63.5266 40.1685 61.419 42.9322C59.3113 45.6958 58.2469 48.9845 58.2469 52.826C58.2469 56.6951 59.3113 60.0114 61.419 62.7474C63.5266 65.4834 66.0813 66.8652 69.0617 66.8652C72.0422 66.8652 74.6182 65.4834 76.7471 62.7474C78.876 60.0114 79.9404 56.6951 79.9404 52.826C79.9404 48.9569 78.876 45.6682 76.7471 42.9045Z" fill="#131227"/>
<defs>
<linearGradient id="paint0_linear_461_5489" x1="54.5" y1="0.206543" x2="54.5" y2="141.704" gradientUnits="userSpaceOnUse">
<stop stop-color="white"/>
<stop offset="1" stop-color="white" stop-opacity="0"/>
</linearGradient>
</defs>
</svg>
