<svg width="35" height="35" viewBox="0 0 35 35" fill="none" xmlns="http://www.w3.org/2000/svg">
<path d="M32.0833 20.4167V24.7917C32.0833 27.2125 30.1292 29.1667 27.7083 29.1667H26.25C26.25 27.5625 24.9375 26.25 23.3333 26.25C21.7292 26.25 20.4167 27.5625 20.4167 29.1667H14.5833C14.5833 27.5625 13.2708 26.25 11.6667 26.25C10.0625 26.25 8.74999 27.5625 8.74999 29.1667H7.29166C4.87082 29.1667 2.91666 27.2125 2.91666 24.7917V20.4167H18.9583C20.5625 20.4167 21.875 19.1042 21.875 17.5V7.29166H24.5584C25.6084 7.29166 26.5709 7.86043 27.0959 8.76459L29.5895 13.125H27.7083C26.9062 13.125 26.25 13.7812 26.25 14.5833V18.9583C26.25 19.7604 26.9062 20.4167 27.7083 20.4167H32.0833Z" fill="white" fill-opacity="0.15"/>
<path d="M11.6667 32.0833C13.2775 32.0833 14.5833 30.7775 14.5833 29.1667C14.5833 27.5558 13.2775 26.25 11.6667 26.25C10.0558 26.25 8.75 27.5558 8.75 29.1667C8.75 30.7775 10.0558 32.0833 11.6667 32.0833Z" fill="#00FFD1"/>
<path d="M23.3333 32.0833C24.9442 32.0833 26.25 30.7775 26.25 29.1667C26.25 27.5558 24.9442 26.25 23.3333 26.25C21.7225 26.25 20.4167 27.5558 20.4167 29.1667C20.4167 30.7775 21.7225 32.0833 23.3333 32.0833Z" fill="#00FFD1"/>
<path d="M32.0833 18.273V20.4167H27.7083C26.9063 20.4167 26.25 19.7604 26.25 18.9583V14.5833C26.25 13.7812 26.9063 13.125 27.7083 13.125H29.5896L31.7042 16.8291C31.9521 17.2666 32.0833 17.7625 32.0833 18.273Z" fill="#00FFD1"/>
<path d="M20.4167 2.91667H8.75002C5.90627 2.91667 3.5438 4.95834 3.03338 7.65626H10.2084C10.8063 7.65626 11.3021 8.15209 11.3021 8.75001C11.3021 9.34792 10.8063 9.84376 10.2084 9.84376H2.91669V12.0313H7.29169C7.8896 12.0313 8.38544 12.5271 8.38544 13.125C8.38544 13.7229 7.8896 14.2188 7.29169 14.2188H2.91669V16.4063H4.37502C4.97294 16.4063 5.46877 16.9021 5.46877 17.5C5.46877 18.0979 4.97294 18.5938 4.37502 18.5938H2.91669V20.4167H18.9584C20.5625 20.4167 21.875 19.1042 21.875 17.5V4.37501C21.875 3.57292 21.2188 2.91667 20.4167 2.91667Z" fill="#00FFD1"/>
<path d="M3.03337 7.65625H1.45834C0.860427 7.65625 0.364594 8.15208 0.364594 8.75C0.364594 9.34792 0.860427 9.84375 1.45834 9.84375H2.91668V8.75C2.91668 8.37083 2.96045 8.00625 3.03337 7.65625Z" fill="#00FFD1"/>
<path d="M1.45834 12.0312C0.860427 12.0312 0.364594 12.5271 0.364594 13.125C0.364594 13.7229 0.860427 14.2188 1.45834 14.2188H2.91668V12.0312H1.45834Z" fill="#00FFD1"/>
<path d="M1.45834 16.4062C0.860427 16.4062 0.364594 16.9021 0.364594 17.5C0.364594 18.0979 0.860427 18.5938 1.45834 18.5938H2.91668V16.4062H1.45834Z" fill="#00FFD1"/>
</svg>
