<svg width="98" height="98" viewBox="0 0 98 98" fill="none" xmlns="http://www.w3.org/2000/svg">
<path d="M44.1525 97.8376C36.3675 97.0368 28.8873 94.3945 22.335 90.1308C16.8499 86.5425 15.581 85.0746 15.581 81.9756C15.581 76.063 22.0894 65.665 33.2642 53.9622C38.0291 48.5523 43.4302 43.7333 49.351 39.609C51.193 40.0167 66.0518 54.4516 71.5779 61.2204C80.3785 71.9446 84.39 80.7115 82.3433 84.626C80.7879 87.6027 71.1276 93.4337 64.0052 95.6764C57.5811 97.625 50.8474 98.3581 44.1525 97.8376ZM8.13108 75.8184C3.49319 68.6499 0.747644 60.4308 0.14907 51.9234C-0.204466 47.9363 0.0717779 43.9186 0.967737 40.0167C2.59133 31.0098 6.7344 22.6424 12.9203 15.8772C15.3763 13.3083 15.581 13.2267 18.61 14.2461C23.7073 16.4256 28.3144 19.6007 32.159 23.5839L35.6793 26.7644L33.7554 29.1295C24.8142 40.0908 17.444 52.2358 11.856 65.2165C10.0752 69.1635 9.42356 73.5238 9.97308 77.8164C10.5462 79.2028 10.014 78.6727 8.13108 75.8184ZM88.5243 77.0009C88.8263 73.4986 88.3368 69.9735 87.0916 66.6845C81.6503 53.5819 74.3588 41.3204 65.4378 30.2712L62.6134 26.7644L65.6425 23.9509C68.6525 21.0757 71.9435 18.5076 75.4665 16.2849C77.622 14.8867 80.0487 13.9559 82.5889 13.5529C83.4895 13.5529 86.6823 16.7742 89.1383 20.281C93.1337 25.9957 95.9192 32.4609 97.325 39.2828C98.225 45.38 98.225 51.5756 97.325 57.6729C96.5248 61.6554 95.2894 65.5387 93.641 69.2534C92.1925 72.2487 90.509 75.1256 88.6061 77.8572C87.9921 78.6319 87.9921 78.6319 88.3196 76.9601L88.5243 77.0009ZM44.9711 11.9219C40.5197 9.72532 35.8196 8.06884 30.9719 6.98793C29.4413 6.7614 27.8926 6.67949 26.3464 6.74327C23.4402 6.74327 23.563 6.74327 28.1884 4.54135C31.842 2.82303 35.6902 1.54977 39.6498 0.749155C45.9411 -0.249718 52.3516 -0.249718 58.6429 0.749155C63.884 1.81017 68.9347 3.65221 73.6245 6.21318L74.6479 6.8656H72.3147C65.6184 7.06001 59.0596 8.8051 53.1578 11.9626C50.9474 13.0228 49.0645 13.8791 49.0645 13.8791C49.0645 13.8791 47.0178 12.9821 44.9711 11.9219Z" fill="url(#paint0_linear_461_5471)" fill-opacity="0.03"/>
<defs>
<linearGradient id="paint0_linear_461_5471" x1="49" y1="0" x2="49" y2="98" gradientUnits="userSpaceOnUse">
<stop stop-color="white"/>
<stop offset="1" stop-color="white" stop-opacity="0"/>
</linearGradient>
</defs>
</svg>
