<svg width="90" height="90" viewBox="0 0 90 90" fill="none" xmlns="http://www.w3.org/2000/svg">
    <path opacity="0.4" d="M44.8875 82.5001C65.5981 82.5001 82.3875 65.7107 82.3875 45C82.3875 24.2893 65.5981 7.50002 44.8875 7.50002C24.1768 7.50002 7.38747 24.2893 7.38747 45C7.38747 65.7107 24.1768 82.5001 44.8875 82.5001Z" fill="white"/>
    <path d="M44.9997 72.1876C36.9372 72.1876 29.3622 68.2501 24.7497 61.6126C23.8497 60.3376 24.1872 58.5751 25.4622 57.7126C26.7372 56.8126 28.4997 57.1501 29.3622 58.4251C32.9247 63.5251 38.7747 66.6001 44.9997 66.6001C51.2247 66.6001 57.0747 63.5626 60.6372 58.4251C61.5372 57.1501 63.2622 56.8501 64.5372 57.7126C65.8122 58.6126 66.1122 60.3376 65.2497 61.6126C60.6372 68.2501 53.0622 72.1876 44.9997 72.1876Z" fill="white"/>
    </svg>
    