<svg width="35" height="35" viewBox="0 0 35 35" fill="none" xmlns="http://www.w3.org/2000/svg">
    <path opacity="0.4" d="M23.6105 2.91669H11.3897C6.08133 2.91669 2.91675 6.08127 2.91675 11.3896V23.5959C2.91675 28.9188 6.08133 32.0834 11.3897 32.0834H23.5959C28.9042 32.0834 32.0688 28.9188 32.0688 23.6104V11.3896C32.0834 6.08127 28.9188 2.91669 23.6105 2.91669Z" fill="#FD6B63" />
    <path d="M15.5166 13.8541C15.2395 13.8541 14.9624 13.7521 14.7437 13.5333C13.7083 12.4979 12.0166 12.4979 10.9812 13.5333C10.5583 13.9562 9.85827 13.9562 9.43535 13.5333C9.01243 13.1104 9.01243 12.4104 9.43535 11.9875C11.3166 10.1062 14.3937 10.1062 16.2895 11.9875C16.7124 12.4104 16.7124 13.1104 16.2895 13.5333C16.0708 13.7521 15.7937 13.8541 15.5166 13.8541Z" fill="#FD6B63" />
    <path d="M19.4834 13.8541C19.2063 13.8541 18.9292 13.7521 18.7105 13.5333C18.2876 13.1104 18.2876 12.4104 18.7105 11.9875C20.5917 10.1062 23.6688 10.1062 25.5647 11.9875C25.9876 12.4104 25.9876 13.1104 25.5647 13.5333C25.1417 13.9562 24.4417 13.9562 24.0188 13.5333C22.9834 12.4979 21.2917 12.4979 20.2563 13.5333C20.0522 13.7521 19.7751 13.8541 19.4834 13.8541Z" fill="#FD6B63" />
    <path d="M17.5 17.3834C13.5771 17.3834 10.3833 20.5771 10.3833 24.5C10.3833 25.5209 11.2146 26.3667 12.2354 26.3667H22.7354C23.7562 26.3667 24.5875 25.5354 24.5875 24.5C24.6166 20.5771 21.4229 17.3834 17.5 17.3834Z" fill="#FD6B63" />
</svg>