<svg width="35" height="35" viewBox="0 0 35 35" fill="none" xmlns="http://www.w3.org/2000/svg">
    <path d="M15.7687 34.942C12.9884 34.656 10.3169 33.7123 7.97678 32.1896C6.01782 30.908 5.56463 30.3838 5.56463 29.277C5.56463 27.1654 7.88906 23.4518 11.8801 19.2722C13.5818 17.3401 15.5108 15.619 17.6254 14.1461C18.2832 14.2917 23.5899 19.447 25.5635 21.8644C28.7066 25.6945 30.1393 28.8255 29.4083 30.2236C28.8528 31.2867 25.4027 33.3692 22.859 34.1701C20.5647 34.8661 18.1598 35.1279 15.7687 34.942V34.942ZM2.90396 27.078C1.24757 24.5178 0.267016 21.5824 0.0532393 18.5441C-0.0730234 17.1201 0.025635 15.6852 0.34562 14.2917C0.925476 11.0749 2.40514 8.08658 4.61439 5.67042C5.49153 4.75295 5.56463 4.72382 6.64644 5.0879C8.46691 5.86627 10.1123 7.00025 11.4854 8.42282L12.7426 9.55873L12.0555 10.4034C8.8622 14.3182 6.23 18.6556 4.23429 23.2916C3.59828 24.7012 3.36556 26.2585 3.56182 27.7916C3.76648 28.2867 3.57644 28.0974 2.90396 27.078ZM31.6158 27.5003C31.7237 26.2495 31.5489 24.9905 31.1041 23.8159C29.1608 19.1364 26.5567 14.7573 23.3707 10.8111L22.3619 9.55873L23.4438 8.55389C24.5187 7.52704 25.6941 6.60986 26.9523 5.81605C27.7222 5.31669 28.5888 4.98425 29.4961 4.84033C29.8177 4.84033 30.958 5.9908 31.8351 7.24322C33.262 9.28417 34.2569 11.5932 34.7589 14.0296C35.0804 16.2072 35.0804 18.4199 34.7589 20.5975C34.4731 22.0198 34.0319 23.4067 33.4432 24.7333C32.9259 25.8031 32.3246 26.8306 31.6451 27.8061C31.4258 28.0828 31.4258 28.0828 31.5427 27.4857L31.6158 27.5003ZM16.0611 4.25781C14.4713 3.47333 12.7927 2.88173 11.0614 2.49569C10.5147 2.41479 9.96163 2.38553 9.40944 2.40831C8.37149 2.40831 8.41535 2.40831 10.0673 1.62191C11.3722 1.00822 12.7465 0.553491 14.1606 0.267555C16.4075 -0.0891851 18.697 -0.0891851 20.9439 0.267555C22.8157 0.646488 24.6195 1.30436 26.2945 2.21899L26.6599 2.452H25.8267C23.4351 2.52143 21.0927 3.14468 18.9849 4.27237C18.1955 4.65101 17.523 4.95683 17.523 4.95683C17.523 4.95683 16.7921 4.63645 16.0611 4.25781Z" fill="white" />
</svg>
    