<svg width="50" height="50" viewBox="0 0 50 50" fill="none" xmlns="http://www.w3.org/2000/svg">
    <path opacity="0.4" d="M33.7291 4.16669H16.2708C8.68746 4.16669 4.16663 8.68752 4.16663 16.2709V33.7084C4.16663 41.3125 8.68746 45.8334 16.2708 45.8334H33.7083C41.2916 45.8334 45.8125 41.3125 45.8125 33.7292V16.2709C45.8333 8.68752 41.3125 4.16669 33.7291 4.16669Z" fill="white" />
    <path d="M15.2708 31.75C14.9374 31.75 14.6041 31.6459 14.3124 31.4167C13.6249 30.8959 13.4999 29.9167 14.0208 29.2292L18.9791 22.7917C19.5833 22.0208 20.4374 21.5209 21.4166 21.3959C22.3749 21.2709 23.3541 21.5417 24.125 22.1458L27.9375 25.1458C28.0833 25.2708 28.2291 25.2708 28.3333 25.25C28.4166 25.25 28.5625 25.2084 28.6875 25.0417L33.5 18.8333C34.0208 18.1458 35.0208 18.0208 35.6875 18.5625C36.375 19.0833 36.5 20.0625 35.9583 20.75L31.1458 26.9583C30.5416 27.7292 29.6875 28.2292 28.7083 28.3334C27.7291 28.4584 26.7708 28.1875 26 27.5833L22.1874 24.5834C22.0416 24.4584 21.875 24.4583 21.7916 24.4792C21.7083 24.4792 21.5625 24.5209 21.4375 24.6875L16.4791 31.125C16.2083 31.5417 15.7499 31.75 15.2708 31.75Z" fill="white" />
</svg>
    