<svg width="30" height="30" viewBox="0 0 30 30" fill="none" xmlns="http://www.w3.org/2000/svg">
<path opacity="0.6" d="M22.2375 13.0875V15H2.5V13.0875C2.5 10.1875 4.8625 7.82495 7.7625 7.82495H16.975C19.875 7.82495 22.2375 10.1875 22.2375 13.0875Z" fill="white"/>
<path opacity="0.4" d="M22.2375 15V22.2375C22.2375 25.1375 19.875 27.5 16.975 27.5H7.7625C4.8625 27.5 2.5 25.1375 2.5 22.2375V15H22.2375Z" fill="white"/>
<path d="M6.875 6.40002C6.3625 6.40002 5.9375 5.97502 5.9375 5.46252V3.27502C5.9375 2.76252 6.3625 2.33752 6.875 2.33752C7.3875 2.33752 7.8125 2.76252 7.8125 3.27502V5.46252C7.8125 5.98752 7.3875 6.40002 6.875 6.40002Z" fill="white"/>
<path d="M11.875 6.40002C11.3625 6.40002 10.9375 5.97502 10.9375 5.46252V3.27502C10.9375 2.76252 11.3625 2.33752 11.875 2.33752C12.3875 2.33752 12.8125 2.76252 12.8125 3.27502V5.46252C12.8125 5.98752 12.3875 6.40002 11.875 6.40002Z" fill="white"/>
<path d="M16.875 6.40002C16.3625 6.40002 15.9375 5.97502 15.9375 5.46252V3.27502C15.9375 2.76252 16.3625 2.33752 16.875 2.33752C17.3875 2.33752 17.8125 2.76252 17.8125 3.27502V5.46252C17.8125 5.98752 17.3875 6.40002 16.875 6.40002Z" fill="white"/>
<path d="M27.0625 17.9C27.0625 20.5875 24.8875 22.7625 22.2 22.7625V13.025C24.875 13.025 27.0625 15.2125 27.0625 17.9Z" fill="white"/>
</svg>
