<svg width="40" height="40" viewBox="0 0 40 40" fill="none" xmlns="http://www.w3.org/2000/svg">
    <path d="M20.0002 36.6667C29.2049 36.6667 36.6668 29.2048 36.6668 20C36.6668 10.7953 29.2049 3.33337 20.0002 3.33337C10.7954 3.33337 3.3335 10.7953 3.3335 20C3.3335 29.2048 10.7954 36.6667 20.0002 36.6667Z" stroke="white" stroke-width="1.5" stroke-miterlimit="10" stroke-linecap="round" stroke-linejoin="round" />
    <path d="M20 24.8C18.4833 24.8 17.25 23.5667 17.25 22.05V17.9334C17.25 16.4167 18.4833 15.1833 20 15.1833C21.5167 15.1833 22.75 16.4167 22.75 17.9334V22.05C22.75 23.5667 21.5167 24.8 20 24.8Z" stroke="white" stroke-width="1.5" stroke-linecap="round" />
    <path d="M28.2998 22.4499C27.9665 26.7499 24.3665 30.1167 19.9998 30.1167C15.3998 30.1167 11.6665 26.3833 11.6665 21.7833V18.2166C11.6665 13.6166 15.3998 9.8833 19.9998 9.8833C24.3165 9.8833 27.8665 13.1666 28.2832 17.3666" stroke="white" stroke-width="1.5" stroke-linecap="round" />
</svg>
    