<svg width="40" height="40" viewBox="0 0 40 40" fill="none" xmlns="http://www.w3.org/2000/svg">
    <path opacity="0.4" d="M31.6667 17.1333V29.05C31.6167 33.8 30.3166 35 25.3666 35H9.63339C4.60006 35 3.33334 33.75 3.33334 28.7833V17.1333C3.33334 12.6333 4.38334 11.1833 8.33334 10.95C8.73334 10.9333 9.16673 10.9167 9.63339 10.9167H25.3666C30.4 10.9167 31.6667 12.1667 31.6667 17.1333Z" fill="white" />
    <path d="M36.6666 11.2167V22.8667C36.6666 27.3667 35.6166 28.8167 31.6666 29.05V17.1333C31.6666 12.1667 30.3999 10.9167 25.3666 10.9167H9.63336C9.1667 10.9167 8.73331 10.9333 8.33331 10.95C8.38331 6.2 9.68336 5 14.6334 5H30.3666C35.3999 5 36.6666 6.25 36.6666 11.2167Z" fill="white" />
    <path d="M11.6001 30.9333H8.73334C8.05 30.9333 7.48334 30.3667 7.48334 29.6833C7.48334 29 8.05 28.4333 8.73334 28.4333H11.6001C12.2834 28.4333 12.8501 29 12.8501 29.6833C12.8501 30.3667 12.3001 30.9333 11.6001 30.9333Z" fill="white" />
    <path d="M20.9166 30.9333H15.1833C14.5 30.9333 13.9333 30.3667 13.9333 29.6833C13.9333 29 14.5 28.4333 15.1833 28.4333H20.9166C21.6 28.4333 22.1666 29 22.1666 29.6833C22.1666 30.3667 21.6166 30.9333 20.9166 30.9333Z" fill="white" />
    <path d="M31.6667 19.7667H3.33334V22.2667H31.6667V19.7667Z" fill="white" />
</svg>
    
    