<svg width="30" height="40" viewBox="0 0 30 40" fill="none" xmlns="http://www.w3.org/2000/svg">
    <path d="M15.8344 5.18244C17.8162 5.30078 19.7546 5.82247 21.5296 6.71418C23.2481 7.57088 24.7798 8.75593 26.0398 10.2043C27.2916 11.6461 28.2433 13.2928 28.8983 15.1429C29.55 16.9913 29.8117 18.9397 29.6717 20.9798C29.6167 22.0398 29.4467 23.0666 29.1617 24.0599C28.8833 25.04 28.5066 25.9917 28.0383 26.8984C27.3066 28.3135 26.4899 29.6519 25.5882 30.9186C24.6915 32.1836 23.7131 33.3603 22.6514 34.4487C21.588 35.5371 20.4629 36.5388 19.2645 37.4522C18.0662 38.3589 16.8128 39.1823 15.5077 39.9173L15.446 39.9606C15.391 39.9906 15.3277 40.004 15.2644 39.999C15.1594 39.974 15.0677 39.919 14.9994 39.8373C14.931 39.754 14.8944 39.6523 14.896 39.549C14.896 39.5006 14.9027 39.4506 14.916 39.4073C14.9294 39.3689 14.951 39.3339 14.9777 39.3039C15.4394 38.6489 15.8211 37.9605 16.1211 37.2455C16.4228 36.5222 16.6261 35.7705 16.7344 34.9804C16.7344 34.9271 16.7094 34.8737 16.6711 34.8387C16.6361 34.7971 16.5828 34.7754 16.5294 34.7754C16.0894 34.8287 15.6494 34.8637 15.2044 34.8787C14.761 34.8937 14.3177 34.8737 13.8776 34.8171C11.8959 34.6987 9.95581 34.1754 8.18073 33.287C6.46232 32.4286 4.93225 31.2436 3.6722 29.7952C2.41547 28.3451 1.44543 26.6701 0.813737 24.8566C0.157042 22.9849 -0.106303 20.9998 0.0387034 19.0197C0.0937059 17.9597 0.263713 16.933 0.548726 15.9396C0.833738 14.9429 1.20875 14.0145 1.67378 13.1395C2.40547 11.6994 3.22551 10.346 4.12222 9.07928C5.02059 7.81756 5.9973 6.63917 7.05735 5.54912C8.12239 4.46241 9.24744 3.46237 10.4458 2.54899C11.6459 1.63895 12.8959 0.817249 14.201 0.0838838L14.2643 0.0422153C14.3193 0.00888046 14.381 -0.00278672 14.446 0.000546758C14.5543 0.0272146 14.6443 0.0855505 14.7093 0.163887C14.781 0.248891 14.8127 0.340562 14.8127 0.4539C14.8144 0.498902 14.8077 0.548904 14.7927 0.593906C14.781 0.632241 14.7594 0.665576 14.7327 0.695577C14.2777 1.33894 13.891 2.03064 13.5876 2.75733C13.286 3.47903 13.0876 4.2324 12.9776 5.02077C12.9776 5.07577 12.9976 5.12577 13.0376 5.16411C13.0743 5.20411 13.1276 5.22578 13.1793 5.22578C13.616 5.17077 14.0577 5.13744 14.5043 5.12411C14.9577 5.10911 15.3977 5.12911 15.8344 5.18244ZM14.4893 25.795C16.0261 25.9267 17.5528 25.41 18.6912 24.37C19.8912 23.3049 20.5396 21.9732 20.6513 20.3698C20.7813 18.823 20.2646 17.293 19.2245 16.1446C18.2228 14.9645 16.7711 14.2595 15.2244 14.2078C13.6793 14.0778 12.1492 14.5945 11.0009 15.6329C9.81913 16.6363 9.1141 18.088 9.06077 19.6331C8.93076 21.1765 9.44078 22.7032 10.4708 23.8583C11.5175 25.0666 12.8576 25.7167 14.4893 25.795Z" fill="white" />
</svg>
    