<svg width="40" height="40" viewBox="0 0 40 40" fill="none" xmlns="http://www.w3.org/2000/svg">
    <path opacity="0.4" d="M36.6167 10.6833V21.5167H3.33334V10.6833C3.33334 6.63333 6.63334 3.33333 10.6833 3.33333H29.2667C33.3167 3.33333 36.6167 6.63333 36.6167 10.6833Z" fill="white" />
    <path d="M3.33334 21.5333V21.8667C3.33334 25.9333 6.63334 29.2167 10.6833 29.2167H17.0833C18 29.2167 18.75 29.9667 18.75 30.8833V32.5C18.75 33.4167 18 34.1667 17.0833 34.1667H13.05C12.3667 34.1667 11.8 34.7333 11.8 35.4167C11.8 36.1 12.35 36.6667 13.05 36.6667H26.9667C27.65 36.6667 28.2167 36.1 28.2167 35.4167C28.2167 34.7333 27.65 34.1667 26.9667 34.1667H22.9333C22.0167 34.1667 21.2667 33.4167 21.2667 32.5V30.8833C21.2667 29.9667 22.0167 29.2167 22.9333 29.2167H29.2833C33.35 29.2167 36.6333 25.9167 36.6333 21.8667V21.5333H3.33334V21.5333Z" fill="white" />
</svg>
    