<svg width="40" height="40" viewBox="0 0 40 40" fill="none" xmlns="http://www.w3.org/2000/svg">
<path d="M15 36.6667H25C33.3333 36.6667 36.6667 33.3333 36.6667 25V15C36.6667 6.66666 33.3333 3.33333 25 3.33333H15C6.66668 3.33333 3.33334 6.66666 3.33334 15V25C3.33334 33.3333 6.66668 36.6667 15 36.6667Z" stroke="white" stroke-width="2.2" stroke-linecap="round" stroke-linejoin="round"/>
<path d="M11.6667 14.5833C13.3333 12.9167 16.05 12.9167 17.7333 14.5833" stroke="white" stroke-width="2.2" stroke-miterlimit="10" stroke-linecap="round" stroke-linejoin="round"/>
<path d="M22.2667 14.5833C23.9333 12.9167 26.65 12.9167 28.3333 14.5833" stroke="white" stroke-width="2.2" stroke-miterlimit="10" stroke-linecap="round" stroke-linejoin="round"/>
<path d="M14 29.5H26C26.8333 29.5 27.5 28.8333 27.5 28C27.5 23.85 24.15 20.5 20 20.5C15.85 20.5 12.5 23.85 12.5 28C12.5 28.8333 13.1667 29.5 14 29.5Z" stroke="white" stroke-width="2.2" stroke-miterlimit="10" stroke-linecap="round" stroke-linejoin="round"/>
</svg>
