<svg width="35" height="35" viewBox="0 0 35 35" fill="none" xmlns="http://www.w3.org/2000/svg">
<path d="M17.5 35C27.165 35 35 27.165 35 17.5C35 7.83502 27.165 0 17.5 0C7.83502 0 0 7.83502 0 17.5C0 27.165 7.83502 35 17.5 35Z" fill="white"/>
<path d="M24.6436 10.5615C23.96 9.88477 23.1396 9.54297 22.1758 9.54297C21.2188 9.54297 20.3984 9.88477 19.7217 10.5684C19.0449 11.252 18.7031 12.0654 18.7031 13.0156C18.7031 13.9727 19.0449 14.793 19.7217 15.4697C20.3984 16.1465 21.2188 16.4883 22.1758 16.4883C23.1328 16.4883 23.96 16.1465 24.6436 15.4697C25.3271 14.793 25.6689 13.9727 25.6689 13.0156C25.6689 12.0586 25.3271 11.2451 24.6436 10.5615ZM26.7559 8.46289C25.4912 7.19824 23.96 6.5625 22.1553 6.5625C20.3779 6.5625 18.8604 7.19141 17.6025 8.44238C16.3447 9.69336 15.7021 11.2109 15.6748 12.9883L11.6279 18.7783C11.5186 18.7646 11.3545 18.7578 11.1221 18.7578C10.2197 18.7578 9.39941 18.9834 8.66113 19.4209L0.0683594 15.9824C0.0273437 16.4814 0 16.9873 0 17.5C0 19.1748 0.232422 20.7881 0.669922 22.3262L6.41211 24.623C6.65137 25.7236 7.21191 26.6396 8.09375 27.3574C8.97559 28.0752 9.9873 28.4375 11.1221 28.4375C12.373 28.4375 13.4531 28.0205 14.376 27.1797C15.2988 26.3389 15.8184 25.2998 15.9414 24.0693L22.1484 19.5371C23.9463 19.5371 25.4775 18.9014 26.7422 17.6367C28.0068 16.3721 28.6426 14.8477 28.6426 13.0566C28.6494 11.2588 28.0205 9.72754 26.7559 8.46289ZM13.6514 26.127C12.9541 26.8174 12.1133 27.1592 11.1357 27.1592C10.4658 27.1592 9.84375 26.9814 9.2832 26.6396C8.71582 26.291 8.28516 25.833 7.99121 25.252C8.61328 25.4912 9.20117 25.7305 9.75488 25.9697C10.4727 26.2568 11.1904 26.25 11.915 25.9424C12.6328 25.6348 13.1455 25.1152 13.4463 24.3838C13.7334 23.666 13.7266 22.9482 13.4189 22.2236C13.1113 21.5059 12.5918 21 11.8604 20.7129L10.3838 20.1182C10.6504 20.0566 10.8965 20.0293 11.1357 20.0293C12.1201 20.0293 12.9609 20.3711 13.6514 21.0615C14.3486 21.752 14.6973 22.5928 14.6973 23.5908C14.6973 24.5889 14.3418 25.4365 13.6514 26.127ZM25.2314 16.126C24.377 16.9736 23.3516 17.3906 22.1553 17.3906C20.959 17.3906 19.9336 16.9668 19.0859 16.126C18.2383 15.2852 17.8145 14.2598 17.8145 13.0566C17.8145 11.8604 18.2383 10.835 19.0859 9.98047C19.9336 9.12598 20.9521 8.70215 22.1553 8.70215C23.3652 8.70215 24.3975 9.12598 25.2383 9.9668C26.0791 10.8076 26.5029 11.8398 26.5029 13.0498C26.5098 14.2529 26.0859 15.2783 25.2314 16.126ZM22.1758 9.5498C21.2188 9.5498 20.3984 9.8916 19.7217 10.5752C19.0449 11.2588 18.7031 12.0723 18.7031 13.0225C18.7031 13.9795 19.0449 14.7998 19.7217 15.4766C20.3984 16.1533 21.2188 16.4951 22.1758 16.4951C23.1328 16.4951 23.96 16.1533 24.6436 15.4766C25.3271 14.7998 25.6689 13.9795 25.6689 13.0225C25.6689 12.0654 25.3271 11.2451 24.6436 10.5684C23.96 9.8916 23.1328 9.5498 22.1758 9.5498ZM24.6436 10.5615C23.96 9.88477 23.1396 9.54297 22.1758 9.54297C21.2188 9.54297 20.3984 9.88477 19.7217 10.5684C19.0449 11.252 18.7031 12.0654 18.7031 13.0156C18.7031 13.9727 19.0449 14.793 19.7217 15.4697C20.3984 16.1465 21.2188 16.4883 22.1758 16.4883C23.1328 16.4883 23.96 16.1465 24.6436 15.4697C25.3271 14.793 25.6689 13.9727 25.6689 13.0156C25.6689 12.0586 25.3271 11.2451 24.6436 10.5615Z" fill="#2A283F"/>
</svg>
